<svg xmlns="http://www.w3.org/2000/svg" width="32" height="32" viewBox="0 0 32 32">
  <defs>
    <linearGradient id="g" x1="0" y1="0" x2="1" y2="1">
      <stop offset="0" stop-color="#e48500"/>
      <stop offset="1" stop-color="#b45309"/>
    </linearGradient>
  </defs>
  <rect width="32" height="32" rx="8" fill="url(#g)"/>
  <g transform="translate(6 6) scale(0.833)" fill="none" stroke="#fff" stroke-width="2" stroke-linecap="round" stroke-linejoin="round">
    <path d="M5.364 3.848C4 6 3 9.652 3 12.652V19a2 2 0 002 2h14a2 2 0 002-2v-5c0-2.334-1.816-4.668-2.622-7.002"/>
    <path d="M7 3h11.379a2 2 0 011.789 1.106l.723 1.447A1 1 0 0119.997 7h-8.525a2 2 0 01-1.789-1.106L8.79 4.105a2 2 0 10-3.579 1.789l2.261 4.522A5 5 0 018 12.652V21"/>
  </g>
</svg>
